<?xml version="1.0" standalone="no"?>
<!DOCTYPE svg PUBLIC "-//W3C//DTD SVG 20010904//EN"
 "http://www.w3.org/TR/2001/REC-SVG-20010904/DTD/svg10.dtd">
<svg version="1.0" xmlns="http://www.w3.org/2000/svg"
 width="626.000000pt" height="626.000000pt" viewBox="0 0 626.000000 626.000000"
 preserveAspectRatio="xMidYMid meet">

<g transform="translate(0.000000,626.000000) scale(0.100000,-0.100000)"
fill="#000000" stroke="none">
<path d="M732 5439 c-93 -18 -178 -93 -202 -177 -14 -52 -14 -4212 0 -4264 18
-62 69 -120 135 -153 l60 -30 1690 0 1690 0 45 21 c57 26 106 76 134 134 20
44 21 59 24 569 l3 524 446 681 c872 1331 955 1458 969 1492 29 69 11 168 -39
222 -26 29 -358 249 -404 268 -73 31 -190 8 -239 -47 -12 -13 -141 -206 -286
-429 -364 -558 -440 -671 -447 -664 -3 3 -6 373 -6 822 0 914 3 868 -72 952
-84 93 95 85 -1793 86 -916 1 -1684 -2 -1708 -7z m3375 -159 c17 -10 38 -29
45 -42 10 -18 14 -211 16 -949 l4 -927 -156 -236 c-101 -154 -160 -235 -168
-230 -7 4 -8 3 -4 -4 4 -7 -7 -32 -23 -56 -17 -25 -31 -47 -31 -50 0 -3 -46
-76 -103 -163 l-103 -158 -28 -160 c-119 -690 -126 -736 -116 -755 12 -22 41
-40 66 -40 9 0 158 93 332 208 173 114 319 208 324 210 4 2 8 -191 8 -428 0
-471 -1 -475 -58 -520 -24 -20 -48 -20 -1698 -20 l-1674 0 -38 34 -37 34 0
2102 0 2102 37 34 38 34 1667 0 c1634 0 1669 0 1700 -20z m1146 -672 l42 -22
-30 -6 c-56 -12 -75 -31 -162 -165 l-88 -134 -33 20 c-19 13 -29 26 -25 32 4
7 44 70 90 140 63 97 91 132 116 142 42 18 41 19 90 -7z m90 -749 c-14 -21
-29 -39 -34 -39 -4 0 -95 57 -201 126 -106 70 -197 128 -203 130 -6 3 -109
-146 -230 -331 -589 -898 -847 -1290 -851 -1294 -8 -8 -74 34 -70 45 4 10 447
689 761 1166 72 109 183 278 248 377 l117 180 245 -160 244 -161 -26 -39z
m-1434 -1669 c116 -77 211 -142 211 -144 0 -5 -428 -286 -435 -286 -4 0 -27
-14 -51 -31 -25 -17 -48 -29 -51 -26 -7 8 100 627 108 627 4 0 102 -63 218
-140z"/>
<path d="M1369 4242 c-27 -23 -30 -75 -5 -100 15 -16 100 -17 1174 -20 l1157
-2 18 21 c23 28 22 74 -3 99 -20 20 -33 20 -1169 20 -1102 0 -1150 -1 -1172
-18z"/>
<path d="M3733 4130 c-1 -16 3 -20 15 -15 14 4 18 -1 17 -22 0 -14 6 -28 13
-30 23 -8 14 54 -10 71 -29 21 -33 20 -35 -4z"/>
<path d="M1425 4083 c2 -16 4 -31 4 -34 1 -10 61 -33 67 -26 3 3 -11 15 -33
26 -21 11 -34 20 -30 21 4 0 25 -9 47 -20 39 -20 59 -20 1160 -20 893 0 1121
3 1118 13 -4 9 -240 13 -1126 15 -1101 2 -1122 2 -1154 22 l-33 20 1123 -2
c617 -2 1122 0 1122 5 0 4 -510 7 -1134 7 l-1135 0 4 -27z"/>
<path d="M1436 3639 c-33 -26 -34 -62 -1 -94 l24 -25 1154 0 c1258 0 1171 -4
1183 58 5 25 1 36 -19 56 l-26 26 -1144 0 c-1143 0 -1144 0 -1171 -21z"/>
<path d="M3786 3529 c-19 -19 -44 -19 -1158 -19 -794 0 -1138 -3 -1138 -11 0
-5 5 -7 11 -3 8 5 10 -1 7 -20 -4 -19 0 -29 13 -36 11 -6 445 -9 1171 -8
l1153 3 -1135 5 -1135 5 1137 3 c675 1 1139 6 1142 11 4 5 2 21 -4 36 -7 17
-7 24 0 20 14 -9 12 9 -2 23 -17 17 -40 14 -62 -9z m-2228 -76 c-10 -2 -26 -2
-35 0 -10 3 -2 5 17 5 19 0 27 -2 18 -5z"/>
<path d="M1430 3000 c-25 -25 -26 -61 -1 -91 l19 -24 1155 -3 1155 -2 21 26
c26 34 26 54 0 88 l-20 26 -1155 0 c-1141 0 -1154 0 -1174 -20z"/>
<path d="M3780 2889 c-15 -19 -31 -19 -1155 -19 -627 0 -1135 -4 -1129 -8 6
-4 13 -15 17 -24 3 -10 14 -18 24 -18 10 0 31 -7 47 -15 25 -13 170 -15 1112
-15 596 0 1084 4 1084 8 0 5 9 19 20 32 21 24 27 46 10 35 -16 -10 -12 7 7 27
15 17 15 18 -3 18 -10 -1 -26 -10 -34 -21z m-2185 -39 c4 -6 10 -8 15 -5 5 3
11 1 15 -4 3 -6 391 -10 1027 -11 562 0 1024 -3 1027 -5 5 -6 -2096 0 -2116 5
-7 2 -13 9 -13 17 0 15 36 18 45 3z m2189 -25 c-7 -16 -34 -21 -34 -6 0 6 -15
12 -32 14 -23 3 -17 4 19 5 43 2 51 -1 47 -13z"/>
<path d="M1520 2800 c8 -5 29 -9 45 -9 26 0 27 2 10 9 -11 5 -31 9 -45 9 -20
1 -22 -1 -10 -9z"/>
</g>
</svg>
